<?xml version="1.0" encoding="utf-8"?>
<!-- Generator: Adobe Illustrator 16.0.0, SVG Export Plug-In . SVG Version: 6.00 Build 0)  -->
<!DOCTYPE svg PUBLIC "-//W3C//DTD SVG 1.1//EN" "http://www.w3.org/Graphics/SVG/1.1/DTD/svg11.dtd">
<svg version="1.1" id="Ebene_1" xmlns="http://www.w3.org/2000/svg" xmlns:xlink="http://www.w3.org/1999/xlink" x="0px" y="0px"
	 width="403px" height="403px" viewBox="0 0 403 403" enable-background="new 0 0 403 403" xml:space="preserve">
<g transform="translate(0.000000,403.000000) scale(0.100000,-0.100000)">
	<rect x="1813.5" y="1813.5" fill="#033990" width="403" height="403"/>
	<g>
		<path fill="#FFFFFF" d="M3580,3089.824c0,243.101-197.061,440.176-440.146,440.176H1000.146
			C757.061,3530,560,3332.924,560,3089.824V950.176C560,707.07,757.061,510,1000.146,510h2139.707
			C3382.939,510,3580,707.07,3580,950.176V3089.824z M2977.07,1130H1210v1750h1767.07l-880.498-875L2977.07,1130z"/>
		<path opacity="0.04" d="M3570,1764.707c-290,325.098-702.666,539.395-1164.463,572.725l-318.057-322.627L2967.676,1130H1200
			v829.697c-340-270.664-570.986-671.416-631.836-1119.531C619.561,654.141,786.504,510,988.882,510h2139.712
			C3371.679,510,3570,721.738,3570,964.834V1764.707z"/>
	</g>
</g>
</svg>
