<?xml version="1.0" standalone="no"?>
<!DOCTYPE svg PUBLIC "-//W3C//DTD SVG 20010904//EN"
 "http://www.w3.org/TR/2001/REC-SVG-20010904/DTD/svg10.dtd">
<svg version="1.0" xmlns="http://www.w3.org/2000/svg"
 width="403.000000pt" height="403.000000pt" viewBox="0 0 403.000000 403.000000"
 preserveAspectRatio="xMidYMid meet">
<metadata>
Created by potrace 1.11, written by Peter Selinger 2001-2013
</metadata>
<g transform="translate(0.000000,403.000000) scale(0.100000,-0.100000)"
fill="#000000" stroke="none">
<path d="M0 2015 l0 -2015 2015 0 2015 0 0 2015 0 2015 -2015 0 -2015 0 0
-2015z m2413 1636 c652 -130 1151 -637 1273 -1296 28 -150 26 -422 -4 -573
-83 -415 -312 -769 -652 -1010 -36 -25 -85 -62 -110 -83 -288 -235 -680 -362
-1065 -345 -755 33 -1372 572 -1511 1321 -28 150 -26 422 4 573 83 415 312
769 652 1010 36 25 85 62 110 83 216 176 503 296 810 339 109 15 371 5 493
-19z"/>
<path d="M1930 3570 c-36 -5 -94 -16 -130 -23 l-65 -14 126 5 c399 14 782
-117 1089 -373 274 -229 463 -545 542 -909 19 -87 22 -131 22 -316 0 -241 -13
-330 -78 -516 -19 -55 -33 -100 -32 -101 8 -8 119 245 140 320 50 172 60 250
60 442 0 148 -4 199 -23 285 -130 608 -580 1058 -1181 1180 -119 25 -364 35
-470 20z"/>
<path d="M1740 3430 c-185 -26 -339 -74 -505 -158 -92 -47 -123 -69 -190 -136
-235 -237 -382 -538 -426 -871 -16 -124 -6 -373 20 -492 116 -531 494 -951
1004 -1118 168 -54 278 -70 477 -69 141 0 195 5 280 23 148 31 265 72 394 138
93 48 124 70 191 137 235 237 382 538 426 871 16 124 6 373 -20 492 -130 595
-586 1044 -1180 1164 -111 22 -370 33 -471 19z m473 -1176 c20 -13 37 -28 37
-32 0 -4 4 -13 9 -21 7 -10 20 -5 59 27 59 46 131 67 194 57 57 -10 120 -73
136 -138 7 -28 12 -134 12 -271 l0 -226 -89 0 -89 0 -4 221 c-3 218 -3 221
-27 240 -38 31 -87 23 -138 -24 -22 -20 -23 -26 -23 -229 l0 -208 -89 0 -90 0
-3 219 c-3 199 -5 221 -22 240 -26 29 -73 27 -119 -4 l-37 -26 0 -214 0 -215
-95 0 -95 0 0 310 0 311 78 -3 77 -3 3 -32 c2 -18 6 -33 9 -33 3 0 26 15 52
34 25 19 62 39 81 45 51 15 129 4 173 -25z m995 7 c72 -37 71 -41 -15 -150 -1
-2 -21 4 -42 14 -69 31 -148 -1 -177 -71 -19 -46 -18 -148 2 -190 35 -74 126
-99 198 -55 l34 21 36 -57 36 -58 -28 -22 c-41 -34 -108 -53 -187 -53 -129 0
-231 70 -276 190 -28 75 -24 214 8 280 26 53 84 115 127 137 88 46 210 52 284
14z m-2261 -148 c18 -87 38 -194 44 -238 l13 -80 13 65 c7 36 31 143 54 238
l41 173 81 -3 82 -3 42 -175 c23 -96 47 -202 54 -235 l13 -60 8 50 c5 28 25
134 45 238 l35 187 84 0 c46 0 84 -3 84 -7 0 -5 -32 -144 -72 -310 l-72 -303
-107 0 -108 0 -10 38 c-5 20 -24 105 -41 187 -48 230 -44 222 -59 130 -7 -44
-26 -140 -42 -212 -16 -73 -29 -135 -29 -138 0 -3 -48 -5 -108 -5 l-107 0 -74
298 c-41 163 -76 303 -79 310 -3 9 19 12 89 12 l94 0 32 -157z"/>
<path d="M567 2583 c-58 -123 -94 -233 -124 -381 -27 -134 -24 -413 6 -552
130 -608 574 -1052 1181 -1181 142 -30 437 -31 575 -2 l90 19 -126 -4 c-400
-14 -782 117 -1089 373 -274 229 -463 545 -542 909 -19 87 -22 131 -22 316 0
241 13 330 78 516 19 55 33 100 32 101 -2 2 -28 -50 -59 -114z"/>
</g>
</svg>
